<svg xmlns="http://www.w3.org/2000/svg" viewBox="0 0 268.667 221.333">
  <defs>
    <style>
      .cls-1{fill:#030a34}
    </style>
  </defs>
  <g id="Layer_1" data-name="Layer 1">
    <path d="M154.288 36.1c6.34-10.028 16.612-17.049 27.9-20.364a53.255 53.255 0 0 1 35.362 1.72 61.889 61.889 0 0 1 27.7 23.467 67.575 67.575 0 0 1 10.85 37.433 82.67 82.67 0 0 1-11.322 40.72q-1.359 2.348-2.86 4.607c-1.973 2.985 2.826 5.766 4.788 2.8A89.865 89.865 0 0 0 261.45 83.54a73.973 73.973 0 0 0-9.209-41.823 68.858 68.858 0 0 0-28.585-27.536 58.906 58.906 0 0 0-38.838-4.838c-12.646 2.729-24.536 9.651-32.49 19.936-1 1.3-1.951 2.631-2.828 4.018-1.912 3.025 2.884 5.81 4.788 2.8ZM28.659 95.214a88.784 88.784 0 0 0 7.958 21.763 141.215 141.215 0 0 0 12.855 20.857 159.949 159.949 0 0 0 15.817 17.915c6.2 6.187 12.614 12.149 19.289 17.818 8.768 7.447 17.989 14.312 27.413 20.9 5.068 3.544 10.2 7.007 15.434 10.3a127.134 127.134 0 0 0 13.376 7.586 32.8 32.8 0 0 0 5.381 2.12 17.777 17.777 0 0 0 8.3-.072c7.769-1.673 14.745-6.463 21.343-10.664 1.67-1.063 3.34-2.126 5.032-3.156 3.043-1.853.26-6.65-2.8-4.787-6.608 4.024-12.981 8.8-20.188 11.727a29.14 29.14 0 0 1-5.032 1.57 11.46 11.46 0 0 1-1.936.271 6.245 6.245 0 0 1-2.573-.052c.138.073.76.142.279.032-.163-.037-.329-.063-.492-.1a14.101 14.101 0 0 1-1.016-.277 27.624 27.624 0 0 1-2.278-.84c.517.211.145.062-.123-.057-.211-.095-.423-.189-.634-.286q-.717-.33-1.425-.679c-1.006-.495-2-1.015-2.986-1.55a152.43 152.43 0 0 1-6.826-3.959c-5.09-3.108-10.062-6.409-14.975-9.789q-7.021-4.83-13.877-9.9-2.814-2.081-5.593-4.21c-.2-.151-.61-.471-.165-.126l-.538-.418q-.537-.418-1.072-.84c-1.269-1-2.525-2.025-3.776-3.052q-9.855-8.086-19.042-16.939a193.713 193.713 0 0 1-16.519-17.4 137.879 137.879 0 0 1-12.982-19.308 99.63 99.63 0 0 1-9.051-20.872q-.717-2.479-1.233-5.008a2.773 2.773 0 1 0-5.346 1.473Zm119.128-58.502a65.636 65.636 0 0 0-28.013-24.55 66.663 66.663 0 0 0-37.029-5.813 64.8 64.8 0 0 0-33.327 15.538 66.762 66.762 0 0 0-20.135 30.776 69.379 69.379 0 0 0-2.558 16.7 122.311 122.311 0 0 0-.025 14.769c.055.777.139 1.553.266 2.322a2.793 2.793 0 0 0 3.41 1.936 2.838 2.838 0 0 0 1.936-3.41c-.092-.56.059.8-.007-.111-.025-.338-.057-.674-.079-1.012-.063-.982-.1-1.965-.12-2.949-.058-2.433-.047-4.868.011-7.3.067-2.818.2-5.636.437-8.445a45.467 45.467 0 0 1 .948-6.69 61.7 61.7 0 0 1 45.919-45.92 59.463 59.463 0 0 1 33.86 2.841A60.471 60.471 0 0 1 143 39.51c1.885 3.021 6.684.241 4.788-2.8Z" class="cls-1"/>
    <path fill="#f45e5e" d="M7.789 96.194c11.144-.047 22.326-1.012 33.441-1.727q6.147-.4 12.294-.816c.252-.017.505-.03.757-.052a5.355 5.355 0 0 0 4.106-2.209 520.477 520.477 0 0 0 5.746-7.483c2.575-3.432 4.782-7.078 7.059-10.713l10.1-16.125h-8.566L100 105.69l7.7 13.736a5.025 5.025 0 0 0 5.6 2.28c2.282-.739 3.336-2.507 3.642-4.784-.191 1.42-.024.306.041-.023.069-.35.147-.7.23-1.045.177-.73.384-1.452.608-2.169.477-1.527 1.038-3.027 1.626-4.514 1.168-2.953 2.483-5.848 3.588-8.826.291-.784.561-1.576.865-2.356q.119-.311.245-.62l-.095.222c.158-.351.312-.7.476-1.051a26.654 26.654 0 0 1 1.726-3.145c.141-.217 1.041-1.436.365-.57-.645.828.028-.019.194-.2a4.666 4.666 0 0 1 .485-.479l-2.189 1.276q.755-.11 1.508-.214l1.474-.2.783-.107c.63-.087-1.134.15-.49.066l.57-.076c2.383-.313 4.777-.656 7.181-.765 8.993-.41 17.978.381 26.954.816 5.061.245 10.129.368 15.192.127 2.589-.123 5.085-2.194 4.961-4.961-.115-2.582-2.184-5.093-4.961-4.961a233.254 233.254 0 0 1-24.013-.613c-6.848-.38-13.84-.853-20.679-.129-2.59.274-5.171.631-7.751.983-2.049.279-3.926.271-5.555 1.748-3.049 2.764-4.8 7.13-6.2 10.869-2.57 6.9-6.075 13.553-7.065 20.923l9.245-2.5L89 65.8l-7.7-13.735c-1.873-3.341-6.634-3.086-8.567 0l-7.878 12.561c-2.326 3.713-4.533 7.546-7.015 11.156-1.442 2.1-3.014 4.11-4.562 6.128q-.286.375-.575.748c-.224.291-1.043 1.312.007-.008-.332.417-.652.842-.978 1.262l-.95 1.218 3.507-1.453c-12.3.853-24.613 1.664-36.931 2.262-3.186.155-6.378.319-9.569.333a4.961 4.961 0 0 0 0 9.922Zm197.728 28.872V136.4a2.773 2.773 0 1 0 5.545 0v-11.334a2.773 2.773 0 0 0-5.545 0Zm11.211 85v-11.333a2.772 2.772 0 1 0-5.544 0v11.333a2.772 2.772 0 0 0 5.544 0Zm-43.105-40.561h10a2.773 2.773 0 0 0 0-5.545h-10a2.773 2.773 0 0 0 0 5.545Zm79.667-9.905-11.667-.334a2.8 2.8 0 0 0-2.772 2.772 2.828 2.828 0 0 0 2.772 2.773l11.667.333a2.8 2.8 0 0 0 2.772-2.772 2.826 2.826 0 0 0-2.772-2.772Zm-70.617-20.66 7.862 4.888a2.8 2.8 0 0 0 3.793-1 2.83 2.83 0 0 0-.994-3.793l-7.863-4.888a2.8 2.8 0 0 0-3.793 1 2.829 2.829 0 0 0 1 3.793Zm49.486-10.213-5.338 7.889a2.772 2.772 0 1 0 4.787 2.8l5.339-7.888a2.773 2.773 0 0 0-4.788-2.8Zm8.317 62.241-7.2-5.182a2.773 2.773 0 0 0-4.073 3.13 3.165 3.165 0 0 0 1.274 1.657l7.2 5.183a2.774 2.774 0 0 0 4.073-3.131 3.169 3.169 0 0 0-1.274-1.657Zm-57.052 5.602 8.649-5.361a2.772 2.772 0 1 0-2.8-4.787l-8.65 5.361a2.773 2.773 0 1 0 2.8 4.787Z"/>
    <path d="M202.02 166.305a25.753 25.753 0 0 1 9.151 8.427 2.005 2.005 0 0 0 3.427 0c3.422-6.646 7.434-12.994 9.923-20.081.465-1.323-1.059-3.023-2.441-2.441l-17.13 7.217a2.052 2.052 0 0 0-1.386 2.441 2 2 0 0 0 2.441 1.386l17.13-7.217-2.441-2.441c-2.371 6.748-6.263 12.8-9.523 19.133h3.429a29.956 29.956 0 0 0-10.575-9.851c-2.238-1.234-4.243 2.192-2 3.427Z" class="cls-1"/>
    <path d="M236.145 126.621a38.559 38.559 0 0 0-44.964-3.424c-15.425 9.049-23.321 26.728-22.472 44.276a49.142 49.142 0 0 0 9.938 27.851 44.523 44.523 0 0 0 22.381 15.169 39.763 39.763 0 0 0 28.251-2.175 48.585 48.585 0 0 0 21.609-20.75 50.586 50.586 0 0 0 6.1-28.886 52.516 52.516 0 0 0-10.576-26.14q-2.236-3.006-4.712-5.819a2.773 2.773 0 1 0-3.921 3.921c5.637 6.42 10.405 13.737 12.571 22.081a43.928 43.928 0 0 1-1.54 26.1c-6.048 16.466-22.4 29.8-40.544 27.561a38.627 38.627 0 0 1-21.466-10.294 41.218 41.218 0 0 1-11.86-22.592c-2.926-15.775 2.292-32.74 14.859-42.7a40.968 40.968 0 0 1 4.047-2.743q1.129-.667 2.3-1.262.549-.278 1.107-.539c.171-.08 1.02-.462.882-.4a36.9 36.9 0 0 1 9.58-2.564 32.373 32.373 0 0 1 19.895 4.131 35.967 35.967 0 0 1 4.613 3.116 2.859 2.859 0 0 0 3.921 0 2.794 2.794 0 0 0 0-3.921Z" class="cls-1"/>
  </g>
</svg>
